<svg width="400" height="400" viewBox="0 0 400 400" fill="none" xmlns="http://www.w3.org/2000/svg">
<path d="M200 400C310.457 400 400 310.457 400 200C400 89.5431 310.457 0 200 0C89.5431 0 0 89.5431 0 200C0 310.457 89.5431 400 200 400Z" fill="#543729"/>
<mask id="mask0" mask-type="alpha" maskUnits="userSpaceOnUse" x="29" y="33" width="342" height="342">
<path d="M200 374.667C294.257 374.667 370.667 298.257 370.667 204C370.667 109.743 294.257 33.3333 200 33.3333C105.743 33.3333 29.3333 109.743 29.3333 204C29.3333 298.257 105.743 374.667 200 374.667Z" fill="#EF5734"/>
</mask>
<g mask="url(#mask0)">
<path d="M200 374.667C294.257 374.667 370.667 298.257 370.667 204C370.667 109.743 294.257 33.3333 200 33.3333C105.743 33.3333 29.3333 109.743 29.3333 204C29.3333 298.257 105.743 374.667 200 374.667Z" fill="#EF5734"/>
<path d="M198.531 386.161C177.09 379.998 161.465 372.446 151.656 363.505C141.934 354.477 137.073 343.366 137.073 330.172C137.073 315.241 143.019 302.915 154.911 293.193C166.891 283.384 182.429 278.479 201.526 278.479C214.547 278.479 226.135 280.997 236.292 286.031C246.535 291.066 254.434 298.011 259.989 306.865C265.632 315.719 268.453 325.397 268.453 335.901H243.323C243.323 324.443 239.677 315.459 232.385 308.948C225.094 302.351 214.807 299.052 201.526 299.052C189.199 299.052 179.564 301.787 172.62 307.255C165.762 312.637 162.333 320.146 162.333 329.781C162.333 337.507 165.589 344.061 172.099 349.443C178.696 354.738 189.851 359.599 205.563 364.026C221.361 368.453 233.687 373.357 242.541 378.739C251.483 384.035 258.08 390.241 262.333 397.359C266.673 404.477 268.844 412.854 268.844 422.489C268.844 437.854 262.854 450.181 250.875 459.469C238.896 468.67 222.88 473.271 202.828 473.271C189.807 473.271 177.655 470.797 166.37 465.849C155.085 460.814 146.361 453.957 140.198 445.276C134.121 436.595 131.083 426.743 131.083 415.719H156.213C156.213 427.177 160.423 436.248 168.844 442.932C177.351 449.529 188.679 452.828 202.828 452.828C216.023 452.828 226.135 450.137 233.167 444.755C240.198 439.373 243.713 432.038 243.713 422.75C243.713 413.462 240.459 406.301 233.948 401.265C227.437 396.144 215.632 391.109 198.531 386.161Z" fill="#E5E5E5"/>
<path d="M269.045 267.411H130.048L98.8305 354H53.7134L180.406 22.2292H218.687L345.608 354H300.719L269.045 267.411ZM143.264 231.409H256.057L199.547 76.2333L143.264 231.409Z" fill="#FFCC2F"/>
<path d="M147.333 135.667H178L183.333 121H147.333V135.667Z" fill="white"/>
<path d="M252 136H221.333L216 121.333H252V136Z" fill="white"/>
<path d="M191 257.333V231.411H208.945V257.333H191Z" fill="white"/>
</g>
</svg>
